<svg width="90" height="90" viewBox="0 0 90 90" fill="none" xmlns="http://www.w3.org/2000/svg">
    <path d="M44.9999 0.555664C36.2096 0.555664 27.6167 3.16228 20.3079 8.0459C12.999 12.9295 7.30247 19.8708 3.93857 27.992C0.574677 36.1131 -0.305471 45.0494 1.40943 53.6708C3.12433 62.2922 7.35725 70.2114 13.5729 76.4271C19.7886 82.6427 27.7078 86.8757 36.3292 88.5906C44.9506 90.3055 53.8869 89.4253 62.008 86.0614C70.1292 82.6975 77.0705 77.001 81.9541 69.6921C86.8377 62.3833 89.4443 53.7904 89.4443 45.0001C89.4443 33.2127 84.7618 21.9081 76.4268 13.5731C68.0919 5.23819 56.7873 0.555664 44.9999 0.555664ZM62.2221 59.389C62.0203 59.6943 61.7601 59.9568 61.4566 60.1613C61.153 60.3658 60.812 60.5082 60.4532 60.5805C60.0944 60.6528 59.7249 60.6535 59.3658 60.5824C59.0068 60.5114 58.6653 60.3702 58.361 60.1668L41.9721 49.0557V24.8612C41.9721 24.1245 42.2648 23.418 42.7857 22.897C43.3066 22.3761 44.0132 22.0834 44.7499 22.0834C45.4866 22.0834 46.1931 22.3761 46.7141 22.897C47.235 23.418 47.5277 24.1245 47.5277 24.8612V46.1112L61.4165 55.5279C61.7241 55.7275 61.9891 55.986 62.1963 56.2886C62.4035 56.5911 62.5487 56.9317 62.6236 57.2906C62.6985 57.6496 62.7015 58.0198 62.6326 58.38C62.5637 58.7401 62.4242 59.083 62.2221 59.389ZM61.2499 17.8612C57.3414 15.5054 52.9696 14.023 48.4344 13.5157C43.8992 13.0084 39.3079 13.4882 34.9755 14.9221C30.6431 16.3561 26.6722 18.7103 23.3353 21.8232C19.9983 24.9361 17.3742 28.7341 15.6431 32.9565C13.9119 37.1789 13.1147 41.7259 13.3061 46.2854C13.4975 50.8449 14.673 55.309 16.7519 59.3715C18.8308 63.434 21.7639 66.9987 25.35 69.821C28.9361 72.6433 33.0904 74.6565 37.5277 75.7223L36.6665 80.0834C31.5775 78.8989 26.8061 76.6242 22.6818 73.4162C18.5575 70.2081 15.1785 66.1433 12.778 61.5023C10.3776 56.8612 9.01287 51.7546 8.77813 46.5348C8.5434 41.315 9.44421 36.1064 11.4184 31.2686C13.3926 26.4309 16.3931 22.0792 20.2128 18.5139C24.0325 14.9486 28.5805 12.2548 33.5426 10.6182C38.5048 8.98173 43.763 8.44157 48.9543 9.03503C54.1456 9.6285 59.1462 11.3415 63.611 14.0557L61.2499 17.8612Z" fill="#330693"/>
</svg>
    