<svg width="323" height="75" viewBox="0 0 323 75" fill="none" xmlns="http://www.w3.org/2000/svg">
    <rect x="7.49519" y="0.797607" width="13.4913" height="9.74374" rx="4.87187" fill="url(#paint0_linear_2_76)"/>
    <rect y="65.2563" width="11.2428" height="9.74374" rx="4.87187" fill="url(#paint1_linear_2_76)"/>
    <path fill-rule="evenodd" clip-rule="evenodd" d="M33.7876 0.422852H96.3132C101.63 1.40526 109.326 4.25367 115.913 9.64332L108.305 15.788C99.686 10.0417 79.2241 3.94562 66.3324 25.5318C61.9602 34.2761 59.0621 54.3133 82.4471 64.5067C90.1921 67.5048 108.156 68.3293 118.049 47.6426C119.548 42.271 120.897 29.6541 114.302 22.1589L121.028 14.6852C126.092 20.748 129.532 28.9537 128.917 39.7726C128.168 50.1409 120.598 71.7021 96.3132 75H20.8237C19.2075 75 17.5228 74.6974 16.3956 73.5391C15.0595 72.166 14.2114 70.1647 15.5943 67.8077C16.924 65.5415 19.7862 64.8815 22.4138 64.8815H31.6071C34.6713 64.8815 38.0413 63.9526 39.1095 61.0806C39.5868 59.7972 39.6908 58.3677 39.0326 56.95C37.9294 54.5737 34.9498 54.0134 32.3299 54.0134H27.42C25.6606 54.0134 23.7996 53.6486 22.7244 52.2559C21.63 50.8385 21.0327 48.8318 22.3098 46.4534C23.4738 44.2858 26.0944 43.5202 28.5548 43.5202H41.4015C44.6766 43.5202 48.3811 42.5235 49.241 39.3633C49.542 38.2574 49.5518 37.0444 49.0433 35.8091C48.0276 33.3414 45.0214 32.6522 42.3529 32.6522H19.4982C16.8338 32.6522 13.9321 31.793 13.0544 29.2773C12.6978 28.255 12.579 27.1143 12.9168 25.9412C13.6796 23.2928 16.8696 22.5337 19.6256 22.5337H36.1149C37.7062 22.5337 39.2911 21.9371 40.1523 20.599C41.4151 18.6369 42.2615 16.0259 40.8387 13.7659C39.7603 12.053 37.5292 11.6656 35.5052 11.6656H34.8716C31.1768 11.6656 26.5721 10.858 26.1251 7.19035C26.013 6.27022 26.1326 5.23985 26.6031 4.11445C27.7282 1.42277 30.8702 0.422852 33.7876 0.422852Z" fill="url(#paint2_linear_2_76)"/>
    <path d="M89.1927 47.2678L80.6741 36.2251C79.6292 34.8706 78.8269 33.2172 79.176 31.5425C79.7358 28.8569 81.7662 28.0896 83.7039 28.1076C85.3542 28.1229 86.7202 29.243 87.6992 30.5717L91.4413 35.6503C92.3407 36.2499 93.3151 35.9001 93.6898 35.6503L131.915 0.0481219C133.414 -0.251686 133.789 0.92256 133.789 1.54716L94.4394 47.2678C91.7411 49.3665 89.8173 48.1422 89.1927 47.2678Z" fill="url(#paint3_linear_2_76)"/>
    <path d="M164.657 40.6774H156.115V37.2299H164.657C166.311 37.2299 167.651 36.9664 168.675 36.4394C169.7 35.9124 170.447 35.1805 170.915 34.2436C171.398 33.3067 171.64 32.238 171.64 31.0376C171.64 29.9397 171.398 28.9076 170.915 27.9414C170.447 26.9753 169.7 26.1994 168.675 25.6138C167.651 25.0136 166.311 24.7135 164.657 24.7135H157.103V53.2157H152.865V21.2441H164.657C167.072 21.2441 169.115 21.6613 170.783 22.4957C172.452 23.3302 173.719 24.4866 174.582 25.9652C175.446 27.4291 175.878 29.1053 175.878 30.9937C175.878 33.0432 175.446 34.7925 174.582 36.2418C173.719 37.691 172.452 38.7963 170.783 39.5575C169.115 40.3041 167.072 40.6774 164.657 40.6774Z" fill="#330693"/>
    <path d="M179.237 41.5997V41.0946C179.237 39.3819 179.486 37.7935 179.984 36.3296C180.482 34.8511 181.199 33.5702 182.136 32.4869C183.073 31.3889 184.207 30.5399 185.54 29.9397C186.872 29.3248 188.365 29.0174 190.019 29.0174C191.688 29.0174 193.188 29.3248 194.521 29.9397C195.867 30.5399 197.009 31.3889 197.946 32.4869C198.898 33.5702 199.622 34.8511 200.12 36.3296C200.618 37.7935 200.867 39.3819 200.867 41.0946V41.5997C200.867 43.3124 200.618 44.9008 200.12 46.3647C199.622 47.8286 198.898 49.1095 197.946 50.2074C197.009 51.2907 195.875 52.1398 194.543 52.7546C193.225 53.3548 191.732 53.6549 190.063 53.6549C188.394 53.6549 186.894 53.3548 185.562 52.7546C184.229 52.1398 183.088 51.2907 182.136 50.2074C181.199 49.1095 180.482 47.8286 179.984 46.3647C179.486 44.9008 179.237 43.3124 179.237 41.5997ZM183.3 41.0946V41.5997C183.3 42.7854 183.439 43.9053 183.717 44.9593C183.995 45.9987 184.412 46.921 184.969 47.7261C185.54 48.5313 186.25 49.1681 187.099 49.6365C187.948 50.0903 188.936 50.3172 190.063 50.3172C191.176 50.3172 192.149 50.0903 192.984 49.6365C193.833 49.1681 194.535 48.5313 195.092 47.7261C195.648 46.921 196.065 45.9987 196.343 44.9593C196.636 43.9053 196.782 42.7854 196.782 41.5997V41.0946C196.782 39.9235 196.636 38.8183 196.343 37.7789C196.065 36.7249 195.64 35.7953 195.07 34.9901C194.513 34.1704 193.811 33.5262 192.962 33.0578C192.127 32.5893 191.146 32.3551 190.019 32.3551C188.907 32.3551 187.926 32.5893 187.077 33.0578C186.242 33.5262 185.54 34.1704 184.969 34.9901C184.412 35.7953 183.995 36.7249 183.717 37.7789C183.439 38.8183 183.3 39.9235 183.3 41.0946Z" fill="#330693"/>
    <path d="M210.023 34.529V53.2157H205.961V29.4566H209.804L210.023 34.529ZM209.057 40.4359L207.366 40.37C207.381 38.7451 207.623 37.2446 208.091 35.8685C208.559 34.4778 209.218 33.2701 210.067 32.2453C210.916 31.2206 211.926 30.4301 213.098 29.8738C214.283 29.3029 215.593 29.0174 217.028 29.0174C218.199 29.0174 219.253 29.1784 220.19 29.5005C221.127 29.8079 221.925 30.3057 222.584 30.9937C223.257 31.6817 223.769 32.5747 224.121 33.6726C224.472 34.7559 224.648 36.0808 224.648 37.6471V53.2157H220.563V37.6032C220.563 36.3589 220.38 35.3634 220.014 34.6168C219.649 33.8556 219.114 33.3067 218.412 32.97C217.709 32.6186 216.845 32.443 215.82 32.443C214.81 32.443 213.888 32.6552 213.054 33.0798C212.234 33.5043 211.524 34.0898 210.924 34.8364C210.338 35.583 209.877 36.4394 209.54 37.4056C209.218 38.3571 209.057 39.3672 209.057 40.4359Z" fill="#330693"/>
    <path d="M240.765 29.4566V32.5747H227.92V29.4566H240.765ZM232.267 23.6815H236.33V47.3309C236.33 48.136 236.454 48.7435 236.703 49.1534C236.952 49.5633 237.274 49.8341 237.669 49.9659C238.064 50.0976 238.489 50.1635 238.943 50.1635C239.279 50.1635 239.631 50.1342 239.997 50.0757C240.377 50.0025 240.663 49.9439 240.853 49.9L240.875 53.2157C240.553 53.3182 240.129 53.4134 239.602 53.5012C239.089 53.6037 238.467 53.6549 237.735 53.6549C236.74 53.6549 235.825 53.4573 234.99 53.062C234.156 52.6668 233.49 52.008 232.992 51.0858C232.509 50.1489 232.267 48.8899 232.267 47.3089V23.6815Z" fill="#330693"/>
    <path d="M244.015 41.5997V41.0946C244.015 39.3819 244.264 37.7935 244.762 36.3296C245.26 34.8511 245.977 33.5702 246.914 32.4869C247.851 31.3889 248.985 30.5399 250.317 29.9397C251.649 29.3248 253.143 29.0174 254.797 29.0174C256.466 29.0174 257.966 29.3248 259.298 29.9397C260.645 30.5399 261.787 31.3889 262.724 32.4869C263.675 33.5702 264.4 34.8511 264.898 36.3296C265.396 37.7935 265.644 39.3819 265.644 41.0946V41.5997C265.644 43.3124 265.396 44.9008 264.898 46.3647C264.4 47.8286 263.675 49.1095 262.724 50.2074C261.787 51.2907 260.652 52.1398 259.32 52.7546C258.003 53.3548 256.51 53.6549 254.841 53.6549C253.172 53.6549 251.671 53.3548 250.339 52.7546C249.007 52.1398 247.865 51.2907 246.914 50.2074C245.977 49.1095 245.26 47.8286 244.762 46.3647C244.264 44.9008 244.015 43.3124 244.015 41.5997ZM248.078 41.0946V41.5997C248.078 42.7854 248.217 43.9053 248.495 44.9593C248.773 45.9987 249.19 46.921 249.746 47.7261C250.317 48.5313 251.027 49.1681 251.876 49.6365C252.725 50.0903 253.714 50.3172 254.841 50.3172C255.953 50.3172 256.927 50.0903 257.761 49.6365C258.61 49.1681 259.313 48.5313 259.869 47.7261C260.426 46.921 260.843 45.9987 261.121 44.9593C261.414 43.9053 261.56 42.7854 261.56 41.5997V41.0946C261.56 39.9235 261.414 38.8183 261.121 37.7789C260.843 36.7249 260.418 35.7953 259.847 34.9901C259.291 34.1704 258.588 33.5262 257.739 33.0578C256.905 32.5893 255.924 32.3551 254.797 32.3551C253.684 32.3551 252.703 32.5893 251.854 33.0578C251.02 33.5262 250.317 34.1704 249.746 34.9901C249.19 35.7953 248.773 36.7249 248.495 37.7789C248.217 38.8183 248.078 39.9235 248.078 41.0946Z" fill="#330693"/>
    <path d="M296.233 36.132V49.2632C295.691 49.8634 294.857 50.5075 293.729 51.1956C292.617 51.869 291.211 52.4472 289.513 52.9303C287.815 53.4134 285.817 53.6549 283.519 53.6549C281.396 53.6549 279.471 53.3182 277.744 52.6448C276.016 51.9568 274.53 50.954 273.286 49.6365C272.056 48.3043 271.105 46.6794 270.431 44.7617C269.773 42.8293 269.443 40.6189 269.443 38.1302V36.3516C269.443 33.8629 269.78 31.6524 270.453 29.7201C271.127 27.7877 272.071 26.1628 273.286 24.8453C274.516 23.5131 275.958 22.503 277.612 21.815C279.281 21.127 281.111 20.783 283.101 20.783C286.044 20.783 288.437 21.2514 290.282 22.1883C292.126 23.1106 293.524 24.3915 294.476 26.0311C295.427 27.656 296.006 29.5371 296.211 31.6744H288.811C288.664 30.6204 288.386 29.7274 287.976 28.9955C287.581 28.2489 287.01 27.6853 286.263 27.3047C285.517 26.9094 284.551 26.7118 283.365 26.7118C282.443 26.7118 281.601 26.9094 280.84 27.3047C280.093 27.6999 279.456 28.3001 278.929 29.1053C278.402 29.8958 277.992 30.8912 277.7 32.0916C277.421 33.292 277.282 34.6974 277.282 36.3077V38.1302C277.282 39.7259 277.414 41.1239 277.678 42.3243C277.956 43.5247 278.366 44.5275 278.907 45.3326C279.464 46.1231 280.166 46.7233 281.015 47.1332C281.879 47.5285 282.896 47.7261 284.068 47.7261C284.887 47.7261 285.59 47.6602 286.176 47.5285C286.761 47.3821 287.244 47.2064 287.625 47.0015C288.02 46.7819 288.32 46.5769 288.525 46.3866V41.424H283.167V36.132H296.233Z" fill="#330693"/>
    <path d="M299.461 41.5777V41.1166C299.461 39.3745 299.709 37.7716 300.207 36.3077C300.705 34.8291 301.437 33.5482 302.403 32.4649C303.369 31.3816 304.562 30.5399 305.982 29.9397C307.402 29.3248 309.042 29.0174 310.901 29.0174C312.775 29.0174 314.422 29.3248 315.842 29.9397C317.276 30.5399 318.477 31.3816 319.443 32.4649C320.409 33.5482 321.141 34.8291 321.639 36.3077C322.136 37.7716 322.385 39.3745 322.385 41.1166V41.5777C322.385 43.3051 322.136 44.9081 321.639 46.3866C321.141 47.8505 320.409 49.1315 319.443 50.2294C318.477 51.3127 317.284 52.1544 315.864 52.7546C314.444 53.3548 312.804 53.6549 310.945 53.6549C309.086 53.6549 307.439 53.3548 306.004 52.7546C304.57 52.1544 303.369 51.3127 302.403 50.2294C301.437 49.1315 300.705 47.8505 300.207 46.3866C299.709 44.9081 299.461 43.3051 299.461 41.5777ZM306.861 41.1166V41.5777C306.861 42.4707 306.926 43.3051 307.058 44.081C307.19 44.8569 307.41 45.5376 307.717 46.1231C308.024 46.6941 308.442 47.1405 308.969 47.4626C309.496 47.7847 310.154 47.9457 310.945 47.9457C311.721 47.9457 312.365 47.7847 312.877 47.4626C313.404 47.1405 313.821 46.6941 314.129 46.1231C314.436 45.5376 314.656 44.8569 314.788 44.081C314.919 43.3051 314.985 42.4707 314.985 41.5777V41.1166C314.985 40.2529 314.919 39.4404 314.788 38.6792C314.656 37.9033 314.436 37.2226 314.129 36.637C313.821 36.0368 313.404 35.5684 312.877 35.2317C312.35 34.895 311.691 34.7266 310.901 34.7266C310.125 34.7266 309.474 34.895 308.947 35.2317C308.434 35.5684 308.024 36.0368 307.717 36.637C307.41 37.2226 307.19 37.9033 307.058 38.6792C306.926 39.4404 306.861 40.2529 306.861 41.1166Z" fill="#330693"/>
    <defs>
    <linearGradient id="paint0_linear_2_76" x1="20.9783" y1="5.645" x2="7.49812" y2="5.645" gradientUnits="userSpaceOnUse">
    <stop stop-color="#330693"/>
    <stop offset="0.198527" stop-color="#390C9A"/>
    <stop offset="1" stop-color="#8A53FF"/>
    </linearGradient>
    <linearGradient id="paint1_linear_2_76" x1="11.2359" y1="70.1037" x2="0.00244817" y2="70.1037" gradientUnits="userSpaceOnUse">
    <stop stop-color="#330693"/>
    <stop offset="0.198527" stop-color="#390C9A"/>
    <stop offset="1" stop-color="#8A53FF"/>
    </linearGradient>
    <linearGradient id="paint2_linear_2_76" x1="128.917" y1="37.524" x2="12.7418" y2="37.524" gradientUnits="userSpaceOnUse">
    <stop stop-color="#330693"/>
    <stop offset="0.198527" stop-color="#390C9A"/>
    <stop offset="1" stop-color="#8A53FF"/>
    </linearGradient>
    <linearGradient id="paint3_linear_2_76" x1="132.665" y1="0.048125" x2="77.2004" y2="52.8892" gradientUnits="userSpaceOnUse">
    <stop stop-color="#330693"/>
    <stop offset="0.275577" stop-color="#340794"/>
    <stop offset="0.43442" stop-color="#390C9A"/>
    <stop offset="1" stop-color="#8A53FF"/>
    </linearGradient>
    </defs>
    </svg>
    
    