<svg width="22" height="21" viewBox="0 0 22 21" fill="none" xmlns="http://www.w3.org/2000/svg">
    <path d="M19.3437 15.3628H17.6961C17.5836 15.3628 17.4781 15.412 17.4078 15.4988C17.2437 15.698 17.0679 15.8902 16.8828 16.073C16.1255 16.831 15.2285 17.4351 14.2414 17.8519C13.2187 18.2838 12.1195 18.5054 11.0093 18.5035C9.88669 18.5035 8.79919 18.2831 7.77732 17.8519C6.79019 17.4351 5.89319 16.831 5.13591 16.073C4.37727 15.3175 3.77236 14.4221 3.35466 13.4363C2.92107 12.4144 2.7031 11.3292 2.7031 10.2066C2.7031 9.08392 2.92341 7.99877 3.35466 6.97689C3.77185 5.99017 4.37185 5.10189 5.13591 4.34017C5.89997 3.57845 6.78825 2.97845 7.77732 2.56127C8.79919 2.13002 9.88669 1.9097 11.0093 1.9097C12.132 1.9097 13.2195 2.12767 14.2414 2.56127C15.2304 2.97845 16.1187 3.57845 16.8828 4.34017C17.0679 4.52533 17.2414 4.71752 17.4078 4.91439C17.4781 5.00111 17.5859 5.05033 17.6961 5.05033H19.3437C19.4914 5.05033 19.5828 4.88627 19.5008 4.76205C17.7031 1.9683 14.5578 0.119078 10.9836 0.128453C5.36794 0.142516 0.865597 4.70111 0.921847 10.3097C0.978097 15.8292 5.47341 20.2847 11.0093 20.2847C14.5742 20.2847 17.7054 18.4378 19.5008 15.6511C19.5804 15.5269 19.4914 15.3628 19.3437 15.3628ZM21.4273 10.0589L18.1015 7.43392C17.9773 7.33549 17.7968 7.42455 17.7968 7.58158V9.36283H10.4375C10.3343 9.36283 10.25 9.4472 10.25 9.55033V10.8628C10.25 10.966 10.3343 11.0503 10.4375 11.0503H17.7968V12.8316C17.7968 12.9886 17.9797 13.0777 18.1015 12.9792L21.4273 10.3542C21.4497 10.3367 21.4678 10.3143 21.4803 10.2887C21.4928 10.2631 21.4993 10.235 21.4993 10.2066C21.4993 10.1781 21.4928 10.15 21.4803 10.1245C21.4678 10.0989 21.4497 10.0765 21.4273 10.0589Z" fill="#20292E"/>
</svg>
    