<svg width="22" height="16" viewBox="0 0 22 16" fill="none" xmlns="http://www.w3.org/2000/svg">
    <path d="M8.28125 8C8.28125 8.69619 8.55781 9.36387 9.05009 9.85616C9.54238 10.3484 10.2101 10.625 10.9062 10.625C11.6024 10.625 12.2701 10.3484 12.7624 9.85616C13.2547 9.36387 13.5312 8.69619 13.5312 8C13.5312 7.30381 13.2547 6.63613 12.7624 6.14384C12.2701 5.65156 11.6024 5.375 10.9062 5.375C10.2101 5.375 9.54238 5.65156 9.05009 6.14384C8.55781 6.63613 8.28125 7.30381 8.28125 8ZM21.0828 7.39531C18.8609 2.71484 15.5023 0.359375 11 0.359375C6.49531 0.359375 3.13906 2.71484 0.917186 7.39766C0.828065 7.58637 0.781845 7.79247 0.781845 8.00117C0.781845 8.20987 0.828065 8.41598 0.917186 8.60469C3.13906 13.2852 6.49765 15.6406 11 15.6406C15.5047 15.6406 18.8609 13.2852 21.0828 8.60234C21.2633 8.22266 21.2633 7.78203 21.0828 7.39531ZM10.9062 12.125C8.62812 12.125 6.78125 10.2781 6.78125 8C6.78125 5.72188 8.62812 3.875 10.9062 3.875C13.1844 3.875 15.0312 5.72188 15.0312 8C15.0312 10.2781 13.1844 12.125 10.9062 12.125Z" fill="#330693"/>
    </svg>
    